<svg width="24" height="24" viewBox="0 0 24 24" fill="none" xmlns="http://www.w3.org/2000/svg">
<g id="vuesax/bold/link">
<g id="link">
<g id="Group 2">
<path id="Vector" d="M8.64022 15.3556C8.3503 15.0657 8.3503 14.5849 8.64022 14.2949L10.7615 12.1736L8.10989 9.52198C7.72098 9.13307 7.08458 9.13307 6.69567 9.52198L5.11882 11.0988C2.89144 13.3262 2.7783 17.088 5.08347 19.2235C6.13706 20.1922 7.47349 20.6801 8.81699 20.6801C10.2241 20.6731 11.6313 20.1427 12.7061 19.0679L14.4738 17.3002C14.8628 16.9112 14.8628 16.2748 14.4738 15.8859L11.8222 13.2343L9.70088 15.3556C9.41096 15.6455 8.93013 15.6455 8.64022 15.3556Z" fill="#0076C1"/>
<path id="Vector_2" d="M15.1805 3.31356C13.7733 3.32063 12.3662 3.85096 11.2914 4.92576L9.52363 6.69353C9.13473 7.08244 9.13473 7.71883 9.52363 8.10774L12.1753 10.7594L14.2966 8.63807C14.5865 8.34816 15.0674 8.34816 15.3573 8.63807C15.6472 8.92799 15.6472 9.40882 15.3573 9.69873L13.2359 11.8201L15.8876 14.4717C16.2765 14.8606 16.9129 14.8606 17.3018 14.4717L18.8787 12.8949C21.106 10.6675 21.2192 6.90566 18.9069 4.77727C17.8604 3.80146 16.5169 3.32063 15.1805 3.31356Z" fill="#0076C1"/>
<path id="Vector_3" d="M12.1753 10.7594L10.7611 12.1736L11.8218 13.2342L13.236 11.82L12.1753 10.7594Z" fill="#0076C1"/>
</g>
</g>
</g>
</svg>
