<svg width="179" height="33" viewBox="0 0 179 33" fill="none" xmlns="http://www.w3.org/2000/svg">
<path d="M45.68 26V8.72H48.608L54.32 20.192L60.032 8.72H62.96V26H59.912V15.68L54.896 26H53.744L48.728 15.68V26H45.68ZM72.3524 26.36C71.0244 26.36 69.8524 26.076 68.8364 25.508C67.8284 24.932 67.0364 24.144 66.4604 23.144C65.8924 22.136 65.6084 20.984 65.6084 19.688C65.6084 18.272 65.8884 17.04 66.4484 15.992C67.0084 14.944 67.7804 14.132 68.7644 13.556C69.7484 12.972 70.8804 12.68 72.1604 12.68C73.5204 12.68 74.6764 13 75.6284 13.64C76.5804 14.28 77.2844 15.18 77.7404 16.34C78.1964 17.5 78.3564 18.864 78.2204 20.432H74.9924V19.232C74.9924 17.912 74.7804 16.964 74.3564 16.388C73.9404 15.804 73.2564 15.512 72.3044 15.512C71.1924 15.512 70.3724 15.852 69.8444 16.532C69.3244 17.204 69.0644 18.2 69.0644 19.52C69.0644 20.728 69.3244 21.664 69.8444 22.328C70.3724 22.984 71.1444 23.312 72.1604 23.312C72.8004 23.312 73.3484 23.172 73.8044 22.892C74.2604 22.612 74.6084 22.208 74.8484 21.68L78.1124 22.616C77.6244 23.8 76.8524 24.72 75.7964 25.376C74.7484 26.032 73.6004 26.36 72.3524 26.36ZM68.0564 20.432V18.008H76.6484V20.432H68.0564ZM86.186 26.36C84.994 26.36 83.95 26.06 83.054 25.46C82.158 24.86 81.458 24.044 80.954 23.012C80.458 21.98 80.21 20.816 80.21 19.52C80.21 18.2 80.462 17.028 80.966 16.004C81.478 14.972 82.194 14.16 83.114 13.568C84.034 12.976 85.114 12.68 86.354 12.68C87.586 12.68 88.622 12.98 89.462 13.58C90.302 14.18 90.938 14.996 91.37 16.028C91.802 17.06 92.018 18.224 92.018 19.52C92.018 20.816 91.798 21.98 91.358 23.012C90.926 24.044 90.278 24.86 89.414 25.46C88.55 26.06 87.474 26.36 86.186 26.36ZM86.714 23.456C87.442 23.456 88.022 23.292 88.454 22.964C88.894 22.636 89.21 22.176 89.402 21.584C89.594 20.992 89.69 20.304 89.69 19.52C89.69 18.736 89.594 18.048 89.402 17.456C89.21 16.864 88.902 16.404 88.478 16.076C88.062 15.748 87.514 15.584 86.834 15.584C86.106 15.584 85.506 15.764 85.034 16.124C84.57 16.476 84.226 16.952 84.002 17.552C83.778 18.144 83.666 18.8 83.666 19.52C83.666 20.248 83.774 20.912 83.99 21.512C84.206 22.104 84.538 22.576 84.986 22.928C85.434 23.28 86.01 23.456 86.714 23.456ZM89.69 26V17.12H89.282V8.72H92.57V26H89.69ZM96.17 11.24V8.36H99.434V11.24H96.17ZM96.17 26V13.04H99.434V26H96.17ZM103.032 26V8.72H109.944C111.176 8.72 112.172 8.968 112.932 9.464C113.692 9.952 114.248 10.568 114.6 11.312C114.952 12.056 115.128 12.808 115.128 13.568C115.128 14.536 114.908 15.34 114.468 15.98C114.036 16.62 113.44 17.048 112.68 17.264V16.664C113.76 16.888 114.568 17.388 115.104 18.164C115.648 18.94 115.92 19.808 115.92 20.768C115.92 21.8 115.728 22.708 115.344 23.492C114.968 24.276 114.392 24.892 113.616 25.34C112.84 25.78 111.864 26 110.688 26H103.032ZM106.344 22.928H110.352C110.792 22.928 111.184 22.836 111.528 22.652C111.872 22.46 112.14 22.196 112.332 21.86C112.532 21.516 112.632 21.112 112.632 20.648C112.632 20.24 112.548 19.876 112.38 19.556C112.212 19.236 111.956 18.984 111.612 18.8C111.276 18.608 110.856 18.512 110.352 18.512H106.344V22.928ZM106.344 15.464H109.896C110.264 15.464 110.592 15.4 110.88 15.272C111.168 15.144 111.396 14.948 111.564 14.684C111.732 14.412 111.816 14.064 111.816 13.64C111.816 13.112 111.652 12.668 111.324 12.308C110.996 11.948 110.52 11.768 109.896 11.768H106.344V15.464ZM118.313 26V13.04H121.193V16.208L120.881 15.8C121.049 15.352 121.273 14.944 121.553 14.576C121.833 14.208 122.177 13.904 122.585 13.664C122.897 13.472 123.237 13.324 123.605 13.22C123.973 13.108 124.353 13.04 124.745 13.016C125.137 12.984 125.529 12.992 125.921 13.04V16.088C125.561 15.976 125.141 15.94 124.661 15.98C124.189 16.012 123.761 16.12 123.377 16.304C122.993 16.48 122.669 16.716 122.405 17.012C122.141 17.3 121.941 17.644 121.805 18.044C121.669 18.436 121.601 18.88 121.601 19.376V26H118.313ZM128.443 11.24V8.36H131.707V11.24H128.443ZM128.443 26V13.04H131.707V26H128.443ZM140.561 26.36C139.369 26.36 138.325 26.06 137.429 25.46C136.533 24.86 135.833 24.044 135.329 23.012C134.833 21.98 134.585 20.816 134.585 19.52C134.585 18.2 134.837 17.028 135.341 16.004C135.853 14.972 136.569 14.16 137.489 13.568C138.409 12.976 139.489 12.68 140.729 12.68C141.961 12.68 142.997 12.98 143.837 13.58C144.677 14.18 145.313 14.996 145.745 16.028C146.177 17.06 146.393 18.224 146.393 19.52C146.393 20.816 146.173 21.98 145.733 23.012C145.301 24.044 144.653 24.86 143.789 25.46C142.925 26.06 141.849 26.36 140.561 26.36ZM141.089 23.456C141.817 23.456 142.397 23.292 142.829 22.964C143.269 22.636 143.585 22.176 143.777 21.584C143.969 20.992 144.065 20.304 144.065 19.52C144.065 18.736 143.969 18.048 143.777 17.456C143.585 16.864 143.277 16.404 142.853 16.076C142.437 15.748 141.889 15.584 141.209 15.584C140.481 15.584 139.881 15.764 139.409 16.124C138.945 16.476 138.601 16.952 138.377 17.552C138.153 18.144 138.041 18.8 138.041 19.52C138.041 20.248 138.149 20.912 138.365 21.512C138.581 22.104 138.913 22.576 139.361 22.928C139.809 23.28 140.385 23.456 141.089 23.456ZM144.065 26V17.12H143.657V8.72H146.945V26H144.065ZM155.849 32.12C155.113 32.12 154.413 32 153.749 31.76C153.085 31.528 152.489 31.2 151.961 30.776C151.441 30.36 151.017 29.872 150.689 29.312L153.713 27.848C153.921 28.232 154.217 28.524 154.601 28.724C154.993 28.924 155.417 29.024 155.873 29.024C156.361 29.024 156.821 28.94 157.253 28.772C157.685 28.612 158.029 28.368 158.285 28.04C158.549 27.72 158.673 27.32 158.657 26.84V23.072H159.065V13.04H161.921V26.888C161.921 27.208 161.905 27.508 161.873 27.788C161.849 28.076 161.801 28.36 161.729 28.64C161.521 29.432 161.133 30.084 160.565 30.596C160.005 31.108 159.317 31.488 158.501 31.736C157.685 31.992 156.801 32.12 155.849 32.12ZM155.561 26.36C154.369 26.36 153.325 26.06 152.429 25.46C151.533 24.86 150.833 24.044 150.329 23.012C149.833 21.98 149.585 20.816 149.585 19.52C149.585 18.2 149.837 17.028 150.341 16.004C150.853 14.972 151.569 14.16 152.489 13.568C153.409 12.976 154.489 12.68 155.729 12.68C156.961 12.68 157.997 12.98 158.837 13.58C159.677 14.18 160.313 14.996 160.745 16.028C161.177 17.06 161.393 18.224 161.393 19.52C161.393 20.816 161.173 21.98 160.733 23.012C160.301 24.044 159.653 24.86 158.789 25.46C157.925 26.06 156.849 26.36 155.561 26.36ZM156.089 23.456C156.817 23.456 157.397 23.292 157.829 22.964C158.269 22.636 158.585 22.176 158.777 21.584C158.969 20.992 159.065 20.304 159.065 19.52C159.065 18.736 158.969 18.048 158.777 17.456C158.585 16.864 158.277 16.404 157.853 16.076C157.437 15.748 156.889 15.584 156.209 15.584C155.481 15.584 154.881 15.764 154.409 16.124C153.945 16.476 153.601 16.952 153.377 17.552C153.153 18.144 153.041 18.8 153.041 19.52C153.041 20.248 153.149 20.912 153.365 21.512C153.581 22.104 153.913 22.576 154.361 22.928C154.809 23.28 155.385 23.456 156.089 23.456ZM171.306 26.36C169.978 26.36 168.806 26.076 167.79 25.508C166.782 24.932 165.99 24.144 165.414 23.144C164.846 22.136 164.562 20.984 164.562 19.688C164.562 18.272 164.842 17.04 165.402 15.992C165.962 14.944 166.734 14.132 167.718 13.556C168.702 12.972 169.834 12.68 171.114 12.68C172.474 12.68 173.63 13 174.582 13.64C175.534 14.28 176.238 15.18 176.694 16.34C177.15 17.5 177.31 18.864 177.174 20.432H173.946V19.232C173.946 17.912 173.734 16.964 173.31 16.388C172.894 15.804 172.21 15.512 171.258 15.512C170.146 15.512 169.326 15.852 168.798 16.532C168.278 17.204 168.018 18.2 168.018 19.52C168.018 20.728 168.278 21.664 168.798 22.328C169.326 22.984 170.098 23.312 171.114 23.312C171.754 23.312 172.302 23.172 172.758 22.892C173.214 22.612 173.562 22.208 173.802 21.68L177.066 22.616C176.578 23.8 175.806 24.72 174.75 25.376C173.702 26.032 172.554 26.36 171.306 26.36ZM167.01 20.432V18.008H175.602V20.432H167.01Z" fill="#0076C1"/>
<path d="M20.9485 11.0518V10.2917C19.2757 11.5348 19.1866 12.7289 18.7425 13.3658C17.9557 14.494 17.2539 14.3473 17.1222 13.9384C16.9184 13.3048 17.1929 11.6391 16.6073 11.6401C14.295 11.644 12.4523 11.7445 10.9718 14.5876C9.49141 17.4308 8.44304 16.2705 8.44304 16.2705C8.44304 16.2705 10.3435 11.6222 11.7695 10.0517C12.8439 8.86837 15.4497 8.47675 17.6025 7.97881C18.8759 7.68435 19.9833 7.23011 20.9485 6.72174V2H9.05185V11.0515H0V22.9482H9.05152V24.4136C10.8525 23.1363 10.9357 21.8968 11.3912 21.2437C12.178 20.1154 12.8798 20.2622 13.0115 20.6711C13.2153 21.3043 12.9408 22.9703 13.5264 22.9693C15.8387 22.9654 17.6814 22.865 19.1618 20.0218C20.6423 17.1787 21.6907 18.3389 21.6907 18.3389C21.6907 18.3389 19.7902 22.9873 18.3642 24.5577C17.2898 25.7411 14.684 26.1327 12.5312 26.6306C11.1975 26.9391 10.0484 27.423 9.05152 27.9608V32.0003H20.9482V22.9488H30V11.0522H20.9485V11.0518ZM15 20.001C13.1576 19.3847 11.9765 17.7996 12.2178 16.4652C12.3779 15.5792 13.2137 15.0774 13.963 15.3366C14.7091 15.5946 15 16.0964 15 16.0964C15 16.0964 15.2909 15.5949 16.037 15.3366C16.7863 15.0774 17.6221 15.5792 17.7822 16.4652C18.0235 17.7996 16.8424 19.3847 15 20.001Z" fill="url(#paint0_linear_405_2499)"/>
<path d="M9.00421 11.0519H9.05149V2.00037H20.9481V6.72211C19.9829 7.2308 18.8755 7.68471 17.6021 7.97917C15.4493 8.4771 12.8436 8.86873 11.7691 10.0521C11.2441 10.6299 10.6558 11.6255 10.1207 12.6523C9.72844 12.1345 9.35606 11.6007 9.00421 11.0519ZM12.7082 15.5933C13.0536 15.2966 13.5228 15.1844 13.9633 15.3367C14.7094 15.5946 15.0003 16.0965 15.0003 16.0965C15.0003 16.0965 15.2912 15.5949 16.0373 15.3367C16.7866 15.0774 17.6224 15.5793 17.7825 16.4653C17.9331 17.2991 17.5284 18.231 16.754 18.9631C17.1965 19.2761 17.6439 19.5823 18.0998 19.8758C18.3773 20.0545 18.6596 20.2335 18.9456 20.4122C19.0187 20.2877 19.0911 20.1592 19.1625 20.0222C20.6429 17.1791 21.6913 18.3393 21.6913 18.3393C21.6913 18.3393 21.1167 19.7437 20.3628 21.2692C21.3926 21.8705 22.4648 22.4447 23.5673 22.9488H30V11.0522H20.9484V10.2921C19.2756 11.5352 19.1866 12.7293 18.7425 13.3661C17.9556 14.4944 17.2539 14.3476 17.1221 13.9387C16.9183 13.3051 17.1929 11.6395 16.6072 11.6405C14.4466 11.6444 12.6962 11.7334 11.2682 14.0643C11.728 14.5916 12.2093 15.1009 12.7082 15.5933Z" fill="url(#paint1_linear_405_2499)"/>
<path opacity="0.25" d="M18.8736 13.1437C19.2225 12.4735 19.453 11.403 20.9481 10.292V11.0521H30V19.8033C27.0081 18.8176 24.1715 17.3759 21.5918 15.4422C20.6494 14.7356 19.7455 13.9592 18.8736 13.1437ZM14.6217 8.6655C15.5876 8.40463 16.6396 8.20213 17.6025 7.97941C18.8759 7.68496 19.9833 7.23071 20.9485 6.72234V2.00061H10.8238C11.4065 4.52583 12.9421 6.7018 14.6217 8.6655Z" fill="url(#paint2_linear_405_2499)"/>
<defs>
<linearGradient id="paint0_linear_405_2499" x1="4.52583" y1="27.4745" x2="25.4742" y2="6.52612" gradientUnits="userSpaceOnUse">
<stop stop-color="#0076C1"/>
<stop offset="0.0737" stop-color="#0B82C6"/>
<stop offset="0.2766" stop-color="#269ED3"/>
<stop offset="0.4546" stop-color="#36AFDA"/>
<stop offset="0.587" stop-color="#3CB5DD"/>
</linearGradient>
<linearGradient id="paint1_linear_405_2499" x1="4.17995" y1="27.8204" x2="25.4741" y2="6.52616" gradientUnits="userSpaceOnUse">
<stop stop-color="#00A482"/>
<stop offset="1" stop-color="#79DD83"/>
</linearGradient>
<linearGradient id="paint2_linear_405_2499" x1="3.8366" y1="27.477" x2="25.1308" y2="6.18274" gradientUnits="userSpaceOnUse">
<stop stop-color="#00A482"/>
<stop offset="1" stop-color="#79DD83"/>
</linearGradient>
</defs>
</svg>
