<svg width="92" height="92" viewBox="0 0 92 92" fill="none" xmlns="http://www.w3.org/2000/svg">
<path d="M64.242 27.759V25.428C59.112 29.24 58.839 32.902 57.477 34.855C55.064 38.315 52.912 37.865 52.508 36.611C51.883 34.668 52.725 29.56 50.929 29.563C43.838 29.575 38.187 29.883 33.647 38.602C29.107 47.321 25.892 43.763 25.892 43.763C25.892 43.763 31.72 29.508 36.093 24.692C39.388 21.063 47.379 19.862 53.981 18.335C57.886 17.432 61.282 16.039 64.242 14.48V0H27.759V27.758H0V64.241H27.758V68.735C33.281 64.818 33.536 61.017 34.933 59.014C37.346 55.554 39.498 56.004 39.902 57.258C40.527 59.2 39.685 64.309 41.481 64.306C48.572 64.294 54.223 63.986 58.763 55.267C63.303 46.548 66.518 50.106 66.518 50.106C66.518 50.106 60.69 64.361 56.317 69.177C53.022 72.806 45.031 74.007 38.429 75.534C34.339 76.48 30.815 77.964 27.758 79.613V92.001H64.241V64.243H92V27.76H64.242V27.759ZM46 55.203C40.35 53.313 36.728 48.452 37.468 44.36C37.959 41.643 40.522 40.104 42.82 40.899C45.108 41.69 46 43.229 46 43.229C46 43.229 46.892 41.691 49.18 40.899C51.478 40.104 54.041 41.643 54.532 44.36C55.272 48.452 51.65 53.313 46 55.203Z" fill="url(#paint0_linear_407_471)"/>
<path d="M27.6128 27.759H27.7578V0.000976562H64.2408V14.481C61.2808 16.041 57.8848 17.433 53.9798 18.336C47.3778 19.863 39.3868 21.064 36.0918 24.693C34.4818 26.465 32.6778 29.518 31.0368 32.667C29.8338 31.079 28.6918 29.442 27.6128 27.759ZM38.9718 41.686C40.0308 40.776 41.4698 40.432 42.8208 40.899C45.1088 41.69 46.0008 43.229 46.0008 43.229C46.0008 43.229 46.8928 41.691 49.1808 40.899C51.4788 40.104 54.0418 41.643 54.5328 44.36C54.9948 46.917 53.7538 49.775 51.3788 52.02C52.7358 52.98 54.1078 53.919 55.5058 54.819C56.3568 55.367 57.2228 55.916 58.0998 56.464C58.3238 56.082 58.5458 55.688 58.7648 55.268C63.3048 46.549 66.5198 50.107 66.5198 50.107C66.5198 50.107 64.7578 54.414 62.4458 59.092C65.6038 60.936 68.8918 62.697 72.2728 64.243H91.9998V27.76H64.2418V25.429C59.1118 29.241 58.8388 32.903 57.4768 34.856C55.0638 38.316 52.9118 37.866 52.5078 36.612C51.8828 34.669 52.7248 29.561 50.9288 29.564C44.3028 29.576 38.9348 29.849 34.5558 36.997C35.9658 38.614 37.4418 40.176 38.9718 41.686Z" fill="url(#paint1_linear_407_471)"/>
<path opacity="0.25" d="M57.8789 34.174C58.9489 32.1189 59.6559 28.836 64.2409 25.429V27.7599H91.9999V54.597C82.8249 51.574 74.1259 47.153 66.2149 41.223C63.3249 39.056 60.5529 36.6749 57.8789 34.174ZM44.8399 20.4409C47.8019 19.6409 51.0279 19.0199 53.9809 18.3369C57.8859 17.4339 61.2819 16.0409 64.2419 14.4819V0.00195312H33.1929C34.9799 7.74595 39.6889 14.4189 44.8399 20.4409Z" fill="url(#paint2_linear_407_471)"/>
<defs>
<linearGradient id="paint0_linear_407_471" x1="13.8792" y1="78.1217" x2="78.1208" y2="13.8801" gradientUnits="userSpaceOnUse">
<stop stop-color="#0076C1"/>
<stop offset="0.0737" stop-color="#0B82C6"/>
<stop offset="0.2766" stop-color="#269ED3"/>
<stop offset="0.4546" stop-color="#36AFDA"/>
<stop offset="0.587" stop-color="#3CB5DD"/>
</linearGradient>
<linearGradient id="paint1_linear_407_471" x1="12.8184" y1="79.1824" x2="78.1206" y2="13.8801" gradientUnits="userSpaceOnUse">
<stop stop-color="#00A482"/>
<stop offset="1" stop-color="#79DD83"/>
</linearGradient>
<linearGradient id="paint2_linear_407_471" x1="11.7655" y1="78.1296" x2="77.0678" y2="12.8271" gradientUnits="userSpaceOnUse">
<stop stop-color="#00A482"/>
<stop offset="1" stop-color="#79DD83"/>
</linearGradient>
</defs>
</svg>
