<svg width="475" height="1471" viewBox="0 0 475 1471" fill="none" xmlns="http://www.w3.org/2000/svg">
<g opacity="0.2">
<path d="M118.396 1470.64L146.627 1443.64C174.857 1416.64 231.319 1362.65 227.903 1312.75C224.488 1262.85 161.196 1217.05 151.792 1167.57C142.389 1118.08 186.875 1064.9 225.374 1012.14C263.872 959.37 296.383 907.013 269.016 858.755C241.65 810.497 154.407 766.338 127.041 718.08C99.6748 669.822 132.185 617.465 122.782 567.978C113.379 518.491 62.0623 471.872 34.6961 423.614C7.32992 375.356 3.91447 325.459 2.20674 300.51L0.499016 275.561" stroke="#257CFF"/>
<path d="M142.732 1436.2L170.962 1409.2C199.193 1382.2 255.654 1328.21 252.239 1278.31C248.823 1228.41 185.531 1182.61 176.128 1133.13C166.725 1083.64 211.211 1030.46 249.709 977.695C288.208 924.929 320.718 872.572 293.352 824.314C265.986 776.056 178.743 731.897 151.377 683.639C124.01 635.381 156.521 583.025 147.118 533.537C137.715 484.05 86.3979 437.431 59.0317 389.173C31.6655 340.915 28.2501 291.018 26.5423 266.069L24.8346 241.121" stroke="#257CFF"/>
<path d="M167.067 1401.76L195.298 1374.76C223.528 1347.76 279.99 1293.77 276.574 1243.87C273.159 1193.97 209.867 1148.17 200.463 1098.68C191.06 1049.2 235.546 996.02 274.045 943.254C312.543 890.488 345.054 838.131 317.687 789.873C290.321 741.615 203.078 697.456 175.712 649.198C148.346 600.94 180.857 548.584 171.453 499.096C162.05 449.609 110.733 402.99 83.3672 354.732C56.001 306.474 52.5855 256.577 50.8778 231.628L49.1701 206.68" stroke="#257CFF"/>
<path d="M191.403 1367.32L219.633 1340.32C247.864 1313.32 304.325 1259.32 300.91 1209.43C297.494 1159.53 234.202 1113.73 224.799 1064.24C215.396 1014.76 259.882 961.579 298.38 908.813C336.878 856.047 369.389 803.69 342.023 755.432C314.657 707.174 227.414 663.015 200.048 614.757C172.681 566.499 205.192 514.143 195.789 464.655C186.386 415.168 135.069 368.549 107.703 320.291C80.3365 272.033 76.921 222.136 75.2133 197.187L73.5056 172.239" stroke="#257CFF"/>
<path d="M215.738 1332.87L243.969 1305.88C272.2 1278.88 328.661 1224.88 325.245 1174.99C321.83 1125.09 258.538 1079.29 249.135 1029.8C239.731 980.315 284.217 927.138 322.716 874.372C361.214 821.606 393.725 769.249 366.359 720.991C338.992 672.734 251.749 628.574 224.383 580.316C197.017 532.058 229.528 479.702 220.124 430.214C210.721 380.727 159.404 334.108 132.038 285.85C104.672 237.592 101.257 187.695 99.5489 162.746L97.8412 137.798" stroke="#257CFF"/>
<path d="M240.074 1298.43L268.304 1271.44C296.535 1244.44 352.996 1190.44 349.581 1140.54C346.165 1090.65 282.873 1044.85 273.47 995.361C264.067 945.874 308.553 892.698 347.051 839.931C385.55 787.165 418.06 734.808 390.694 686.551C363.328 638.293 276.085 594.133 248.719 545.875C221.352 497.617 253.863 445.261 244.46 395.773C235.057 346.286 183.74 299.667 156.374 251.41C129.008 203.152 125.592 153.254 123.884 128.306L122.177 103.357" stroke="#257CFF"/>
<path d="M264.409 1263.99L292.64 1237C320.871 1210 377.332 1156 373.916 1106.1C370.501 1056.21 307.209 1010.41 297.806 960.92C288.402 911.433 332.888 858.257 371.387 805.49C409.885 752.724 442.396 700.368 415.03 652.11C387.663 603.852 300.42 559.692 273.054 511.434C245.688 463.177 278.199 410.82 268.796 361.333C259.392 311.845 208.076 265.227 180.709 216.969C153.343 168.711 149.928 118.813 148.22 93.8647L146.512 68.916" stroke="#257CFF"/>
<path d="M288.745 1229.55L316.975 1202.55C345.206 1175.56 401.667 1121.56 398.252 1071.66C394.837 1021.77 331.544 975.967 322.141 926.48C312.738 876.992 357.224 823.816 395.722 771.05C434.221 718.283 466.731 665.927 439.365 617.669C411.999 569.411 324.756 525.252 297.39 476.994C270.024 428.736 302.534 376.379 293.131 326.892C283.728 277.404 232.411 230.786 205.045 182.528C177.679 134.27 174.263 84.3725 172.555 59.4238L170.848 34.4752" stroke="#257CFF"/>
<path d="M313.08 1195.11L341.311 1168.11C369.542 1141.12 426.003 1087.12 422.588 1037.22C419.172 987.325 355.88 941.526 346.477 892.039C337.074 842.551 381.56 789.375 420.058 736.609C458.556 683.842 491.067 631.486 463.701 583.228C436.334 534.97 349.091 490.811 321.725 442.553C294.359 394.295 326.87 341.938 317.467 292.451C308.063 242.963 256.747 196.345 229.38 148.087C202.014 99.8289 198.599 49.9315 196.891 24.9828L195.183 0.0341683" stroke="#257CFF"/>
</g>
</svg>
