<svg width="30" height="30" viewBox="0 0 30 30" fill="none" xmlns="http://www.w3.org/2000/svg">
<path d="M20.9482 9.05174V8.29164C19.2754 9.53467 19.1864 10.7288 18.7423 11.3656C17.9554 12.4939 17.2537 12.3471 17.122 11.9382C16.9182 11.3047 17.1927 9.63902 16.6071 9.64C14.2948 9.64391 12.4521 9.74434 10.9717 12.5875C9.4913 15.4306 8.44294 14.2704 8.44294 14.2704C8.44294 14.2704 10.3433 9.62206 11.7693 8.05165C12.8438 6.86829 15.4495 6.47667 17.6023 5.97874C18.8756 5.68429 19.983 5.23005 20.9482 4.72168V0H9.05174V9.05141H0V20.9479H9.05141V22.4133C10.8524 21.1361 10.9355 19.8966 11.3911 19.2435C12.1779 18.1152 12.8796 18.2619 13.0114 18.6709C13.2152 19.3041 12.9406 20.9701 13.5262 20.9691C15.8385 20.9652 17.6812 20.8647 19.1616 18.0216C20.642 15.1785 21.6904 16.3387 21.6904 16.3387C21.6904 16.3387 19.79 20.987 18.364 22.5574C17.2896 23.7408 14.6838 24.1324 12.531 24.6303C11.1974 24.9388 10.0482 25.4227 9.05141 25.9604V30H20.9479V20.9486H29.9996V9.05207H20.9482V9.05174ZM14.9998 18.0008C13.1574 17.3845 11.9764 15.7994 12.2177 14.465C12.3778 13.5791 13.2135 13.0772 13.9629 13.3365C14.709 13.5944 14.9998 14.0962 14.9998 14.0962C14.9998 14.0962 15.2907 13.5947 16.0368 13.3365C16.7861 13.0772 17.6219 13.5791 17.782 14.465C18.0233 15.7994 16.8422 17.3845 14.9998 18.0008Z" fill="url(#paint0_linear_405_2501)"/>
<path d="M9.0041 9.05178H9.05138V0.000366206H20.9479V4.72205C19.9827 5.23074 18.8753 5.68464 17.6019 5.97909C15.4491 6.47702 12.8434 6.86865 11.769 8.052C11.244 8.62982 10.6557 9.62536 10.1206 10.6522C9.72833 10.1344 9.35595 9.60057 9.0041 9.05178ZM12.7081 13.5931C13.0534 13.2964 13.5226 13.1842 13.9632 13.3365C14.7093 13.5944 15.0001 14.0963 15.0001 14.0963C15.0001 14.0963 15.291 13.5948 16.0371 13.3365C16.7864 13.0773 17.6221 13.5791 17.7822 14.4651C17.9329 15.2989 17.5282 16.2308 16.7538 16.9629C17.1963 17.2759 17.6437 17.5821 18.0995 17.8756C18.377 18.0543 18.6594 18.2333 18.9454 18.412C19.0184 18.2874 19.0908 18.1589 19.1622 18.022C20.6427 15.1789 21.691 16.3391 21.691 16.3391C21.691 16.3391 21.1165 17.7435 20.3626 19.2689C21.3923 19.8702 22.4645 20.4445 23.567 20.9486H29.9996V9.0521H20.9482V8.29201C19.2754 9.53504 19.1864 10.7292 18.7422 11.366C17.9554 12.4942 17.2537 12.3475 17.1219 11.9386C16.9181 11.305 17.1927 9.63937 16.607 9.64035C14.4464 9.64427 12.696 9.73329 11.2681 12.0641C11.7279 12.5914 12.2092 13.1007 12.7081 13.5931Z" fill="url(#paint1_linear_405_2501)"/>
<path opacity="0.25" d="M18.8733 11.1435C19.2223 10.4734 19.4528 9.40289 20.9479 8.29192V9.05202H29.9996V17.8031C27.0078 16.8174 24.1712 15.3758 21.5916 13.4421C20.6492 12.7355 19.7453 11.9591 18.8733 11.1435ZM14.6215 6.66542C15.5874 6.40455 16.6393 6.20205 17.6023 5.97934C18.8756 5.68489 19.983 5.23065 20.9482 4.72229V0.000610344H10.8237C11.4064 2.5258 12.9419 4.70175 14.6215 6.66542Z" fill="url(#paint2_linear_405_2501)"/>
<defs>
<linearGradient id="paint0_linear_405_2501" x1="4.52577" y1="25.4742" x2="25.4739" y2="4.52607" gradientUnits="userSpaceOnUse">
<stop stop-color="#0076C1"/>
<stop offset="0.0737" stop-color="#0B82C6"/>
<stop offset="0.2766" stop-color="#269ED3"/>
<stop offset="0.4546" stop-color="#36AFDA"/>
<stop offset="0.587" stop-color="#3CB5DD"/>
</linearGradient>
<linearGradient id="paint1_linear_405_2501" x1="4.1799" y1="25.8201" x2="25.4738" y2="4.52611" gradientUnits="userSpaceOnUse">
<stop stop-color="#00A482"/>
<stop offset="1" stop-color="#79DD83"/>
</linearGradient>
<linearGradient id="paint2_linear_405_2501" x1="3.83655" y1="25.4767" x2="25.1305" y2="4.18269" gradientUnits="userSpaceOnUse">
<stop stop-color="#00A482"/>
<stop offset="1" stop-color="#79DD83"/>
</linearGradient>
</defs>
</svg>
