<svg width="16" height="16" viewBox="0 0 16 16" fill="none" xmlns="http://www.w3.org/2000/svg">
<path d="M10.3263 12.289C10.391 12.2255 10.4266 12.138 10.4248 12.0473C10.4229 11.9566 10.3837 11.8706 10.3165 11.8098C8.98017 10.6783 7.02297 10.6783 5.68663 11.8098C5.61935 11.8706 5.58012 11.9565 5.5782 12.0472C5.57628 12.1379 5.61185 12.2254 5.6765 12.289L7.76934 14.4029C7.83068 14.465 7.91431 14.5 8.00157 14.5C8.08883 14.5 8.17246 14.465 8.2338 14.4029L10.3263 12.289Z" fill="black"/>
<path d="M8.00128 9.3691C9.27678 9.36902 10.5068 9.8436 11.4522 10.7006C11.5801 10.8222 11.7815 10.8196 11.9062 10.6947L13.1159 9.47117C13.1796 9.407 13.2149 9.31994 13.214 9.22947C13.2131 9.139 13.176 9.05268 13.111 8.98981C10.2319 6.3089 5.77316 6.3089 2.89402 8.98981C2.82899 9.05268 2.79188 9.13904 2.79103 9.22954C2.79018 9.32004 2.82565 9.40709 2.88949 9.47117L4.09881 10.6947C4.22347 10.8196 4.42491 10.8222 4.55279 10.7006C5.49763 9.84416 6.72663 9.36963 8.00128 9.3691Z" fill="black"/>
<path opacity="0.2" d="M8.00044 5.38827C10.3219 5.38837 12.5546 6.28128 14.2371 7.88246C14.3638 8.00608 14.5663 8.00452 14.691 7.87896L15.9021 6.65546C15.9653 6.59178 16.0005 6.50552 16 6.41577C15.9995 6.32603 15.9632 6.24019 15.8993 6.17725C11.4834 1.94092 4.51678 1.94092 0.100859 6.17725C0.0368916 6.24014 0.000597157 6.32595 7.30289e-06 6.4157C-0.000582551 6.50545 0.0345808 6.59174 0.0977163 6.65546L1.30914 7.87896C1.43384 8.00471 1.6365 8.00627 1.76312 7.88246C3.44579 6.28118 5.67875 5.38826 8.00044 5.38827Z" fill="black"/>
</svg>
